HIERARCHY
ROOT Hips
{
	OFFSET 0.000000 83.214638 0.000000
	CHANNELS 6 Xposition Yposition Zposition Xrotation Yrotation Zrotation
	JOINT Pelvis
	{
		OFFSET 0.000000 0.000000 0.000000
		CHANNELS 3 Xrotation Yrotation Zrotation
		JOINT LeftUpLeg
		{
			OFFSET 8.479700 -4.795502 -0.379100
			CHANNELS 3 Xrotation Yrotation Zrotation
			JOINT LeftLeg
			{
				OFFSET 0.024144 -32.555107 0.112900
				CHANNELS 3 Xrotation Yrotation Zrotation
				JOINT LeftFoot
				{
					OFFSET -0.024144 -32.638630 -3.012600
					CHANNELS 3 Xrotation Yrotation Zrotation
					JOINT LeftToeBase
					{
						OFFSET 0.970200 -13.225400 11.864200
						CHANNELS 3 Xrotation Yrotation Zrotation
						End Site
						{
							OFFSET 0.000000 12.319262 0.000000
						}
					}
					JOINT LFootTongue
					{
						OFFSET 1.142400 -1.059800 6.665200
						CHANNELS 3 Xrotation Yrotation Zrotation
						End Site
						{
							OFFSET 0.000000 12.319262 0.000000
						}
					}
				}
				JOINT LeftPantLeg
				{
					OFFSET 0.918482 -16.533964 -2.284700
					CHANNELS 3 Xrotation Yrotation Zrotation
					End Site
					{
						OFFSET 0.350399 24.744368 0.000000
					}
				}
			}
		}
		JOINT RightUpLeg
		{
			OFFSET -8.479700 -4.795502 -0.379100
			CHANNELS 3 Xrotation Yrotation Zrotation
			JOINT RightLeg
			{
				OFFSET -0.023144 -32.555092 0.112900
				CHANNELS 3 Xrotation Yrotation Zrotation
				JOINT RightFoot
				{
					OFFSET 0.023144 -32.638641 -3.012700
					CHANNELS 3 Xrotation Yrotation Zrotation
					JOINT RightToeBase
					{
						OFFSET -0.970200 -13.225400 11.864200
						CHANNELS 3 Xrotation Yrotation Zrotation
						End Site
						{
							OFFSET 0.000000 12.319244 0.000000
						}
					}
					JOINT RFootTongue
					{
						OFFSET -1.142200 -1.059800 6.665200
						CHANNELS 3 Xrotation Yrotation Zrotation
						End Site
						{
							OFFSET 0.000000 12.319243 0.000000
						}
					}
				}
				JOINT RightPantLeg
				{
					OFFSET -0.919482 -16.533978 -2.284800
					CHANNELS 3 Xrotation Yrotation Zrotation
					End Site
					{
						OFFSET -0.350400 24.744419 0.000000
					}
				}
			}
		}
	}
	JOINT Spine
	{
		OFFSET 0.000000 7.722000 1.166200
		CHANNELS 3 Xrotation Yrotation Zrotation
		JOINT Spine1
		{
			OFFSET 0.000000 12.024101 0.248800
			CHANNELS 3 Xrotation Yrotation Zrotation
			JOINT Spine2
			{
				OFFSET 0.000000 11.502998 -0.491200
				CHANNELS 3 Xrotation Yrotation Zrotation
				JOINT Neck
				{
					OFFSET 0.000000 18.430702 -3.123100
					CHANNELS 3 Xrotation Yrotation Zrotation
					JOINT Head
					{
						OFFSET 0.000000 9.051102 1.034000
						CHANNELS 3 Xrotation Yrotation Zrotation
						JOINT HairB
						{
							OFFSET 0.208400 24.786102 24.822300
							CHANNELS 3 Xrotation Yrotation Zrotation
							End Site
							{
								OFFSET 0.000000 32.263779 0.000000
							}
						}
						JOINT HairA
						{
							OFFSET -7.081100 24.428299 23.196600
							CHANNELS 3 Xrotation Yrotation Zrotation
							End Site
							{
								OFFSET 0.000000 32.263779 0.000000
							}
						}
						JOINT Hat
						{
							OFFSET 16.728800 15.048294 -15.439601
							CHANNELS 3 Xrotation Yrotation Zrotation
							End Site
							{
								OFFSET 0.000000 32.263779 0.000000
							}
						}
					}
				}
				JOINT LeftShoulder
				{
					OFFSET 6.197800 13.665199 -4.064700
					CHANNELS 3 Xrotation Yrotation Zrotation
					JOINT LeftArm
					{
						OFFSET 7.778100 -0.187103 -1.709300
						CHANNELS 3 Xrotation Yrotation Zrotation
						JOINT LeftForeArm
						{
							OFFSET 22.049376 0.000000 0.000000
							CHANNELS 3 Xrotation Yrotation Zrotation
							JOINT LeftHand
							{
								OFFSET 23.009392 0.000000 0.000000
								CHANNELS 3 Xrotation Yrotation Zrotation
								JOINT LeftHandThumb1
								{
									OFFSET 3.507191 -2.063065 3.133727
									CHANNELS 3 Xrotation Yrotation Zrotation
									JOINT LeftHandThumb2
									{
										OFFSET 3.101337 -1.790558 1.790558
										CHANNELS 3 Xrotation Yrotation Zrotation
										JOINT LeftHandThumb3
										{
											OFFSET 3.058640 -1.765907 1.765906
											CHANNELS 3 Xrotation Yrotation Zrotation
											End Site
											{
												OFFSET -0.415260 3.926476 -0.049563
											}
										}
									}
								}
								JOINT LeftHandIndex1
								{
									OFFSET 11.334419 -0.901459 3.706815
									CHANNELS 3 Xrotation Yrotation Zrotation
									JOINT LeftHandIndex2
									{
										OFFSET 3.283112 0.000000 0.000000
										CHANNELS 3 Xrotation Yrotation Zrotation
										JOINT LeftHandIndex3
										{
											OFFSET 3.323853 0.000000 0.000000
											CHANNELS 3 Xrotation Yrotation Zrotation
											End Site
											{
												OFFSET -1.135597 3.097809 0.402452
											}
										}
									}
								}
								JOINT LeftHandMiddle1
								{
									OFFSET 11.335861 0.000000 0.000000
									CHANNELS 3 Xrotation Yrotation Zrotation
									JOINT LeftHandMiddle2
									{
										OFFSET 3.410492 0.000000 0.000000
										CHANNELS 3 Xrotation Yrotation Zrotation
										JOINT LeftHandMiddle3
										{
											OFFSET 3.312172 0.000000 0.000000
											CHANNELS 3 Xrotation Yrotation Zrotation
											End Site
											{
												OFFSET -1.150200 3.080154 0.400270
											}
										}
									}
								}
								JOINT LeftHandRing1
								{
									OFFSET 11.514786 -0.013176 -3.003090
									CHANNELS 3 Xrotation Yrotation Zrotation
									JOINT LeftHandRing2
									{
										OFFSET 3.053307 0.000000 0.000000
										CHANNELS 3 Xrotation Yrotation Zrotation
										JOINT LeftHandRing3
										{
											OFFSET 3.295807 0.000000 0.000000
											CHANNELS 3 Xrotation Yrotation Zrotation
											End Site
											{
												OFFSET -1.281006 3.013344 0.375733
											}
										}
									}
								}
								JOINT LeftHandPinky1
								{
									OFFSET 10.518692 -0.960396 -5.730441
									CHANNELS 3 Xrotation Yrotation Zrotation
									JOINT LeftHandPinky2
									{
										OFFSET 2.861649 0.000000 0.000000
										CHANNELS 3 Xrotation Yrotation Zrotation
										JOINT LeftHandPinky3
										{
											OFFSET 2.863380 0.000000 0.000000
											CHANNELS 3 Xrotation Yrotation Zrotation
											End Site
											{
												OFFSET -0.843597 2.711159 0.369971
											}
										}
									}
								}
							}
							JOINT LSleeve
							{
								OFFSET 6.676277 -0.344902 -1.011730
								CHANNELS 3 Xrotation Yrotation Zrotation
								End Site
								{
									OFFSET 0.000000 14.885353 0.000000
								}
							}
						}
					}
				}
				JOINT RightShoulder
				{
					OFFSET -6.197800 13.665199 -4.064700
					CHANNELS 3 Xrotation Yrotation Zrotation
					JOINT RightArm
					{
						OFFSET -7.778100 -0.187103 -1.709300
						CHANNELS 3 Xrotation Yrotation Zrotation
						JOINT RightForeArm
						{
							OFFSET -22.049376 0.000000 0.000000
							CHANNELS 3 Xrotation Yrotation Zrotation
							JOINT RightHand
							{
								OFFSET -23.009392 0.000000 0.000000
								CHANNELS 3 Xrotation Yrotation Zrotation
								JOINT RightHandThumb1
								{
									OFFSET -3.507191 -2.063065 3.133727
									CHANNELS 3 Xrotation Yrotation Zrotation
									JOINT RightHandThumb2
									{
										OFFSET -3.101337 -1.790558 1.790558
										CHANNELS 3 Xrotation Yrotation Zrotation
										JOINT RightHandThumb3
										{
											OFFSET -3.058640 -1.765907 1.765906
											CHANNELS 3 Xrotation Yrotation Zrotation
											End Site
											{
												OFFSET 0.415260 3.926476 -0.049563
											}
										}
									}
								}
								JOINT RightHandIndex1
								{
									OFFSET -11.334419 -0.901459 3.706815
									CHANNELS 3 Xrotation Yrotation Zrotation
									JOINT RightHandIndex2
									{
										OFFSET -3.283112 0.000000 0.000000
										CHANNELS 3 Xrotation Yrotation Zrotation
										JOINT RightHandIndex3
										{
											OFFSET -3.323853 0.000000 0.000000
											CHANNELS 3 Xrotation Yrotation Zrotation
											End Site
											{
												OFFSET 1.135597 3.097809 0.402452
											}
										}
									}
								}
								JOINT RightHandMiddle1
								{
									OFFSET -11.335861 0.000000 0.000000
									CHANNELS 3 Xrotation Yrotation Zrotation
									JOINT RightHandMiddle2
									{
										OFFSET -3.410492 0.000000 0.000000
										CHANNELS 3 Xrotation Yrotation Zrotation
										JOINT RightHandMiddle3
										{
											OFFSET -3.312172 0.000000 0.000000
											CHANNELS 3 Xrotation Yrotation Zrotation
											End Site
											{
												OFFSET 1.150200 3.080154 0.400270
											}
										}
									}
								}
								JOINT RightHandRing1
								{
									OFFSET -11.514786 -0.013176 -3.003090
									CHANNELS 3 Xrotation Yrotation Zrotation
									JOINT RightHandRing2
									{
										OFFSET -3.053307 0.000000 0.000000
										CHANNELS 3 Xrotation Yrotation Zrotation
										JOINT RightHandRing3
										{
											OFFSET -3.295807 0.000000 0.000000
											CHANNELS 3 Xrotation Yrotation Zrotation
											End Site
											{
												OFFSET 1.281006 3.013344 0.375733
											}
										}
									}
								}
								JOINT RightHandPinky1
								{
									OFFSET -10.518692 -0.960396 -5.730441
									CHANNELS 3 Xrotation Yrotation Zrotation
									JOINT RightHandPinky2
									{
										OFFSET -2.861649 0.000000 0.000000
										CHANNELS 3 Xrotation Yrotation Zrotation
										JOINT RightHandPinky3
										{
											OFFSET -2.863380 0.000000 0.000000
											CHANNELS 3 Xrotation Yrotation Zrotation
											End Site
											{
												OFFSET 0.843597 2.711159 0.369971
											}
										}
									}
								}
							}
							JOINT RSleeve
							{
								OFFSET -6.676277 -0.344902 -1.011730
								CHANNELS 3 Xrotation Yrotation Zrotation
								End Site
								{
									OFFSET 0.000000 14.885353 0.000000
								}
							}
						}
					}
				}
				JOINT Backpack
				{
					OFFSET 0.000000 -2.471497 36.677502
					CHANNELS 3 Xrotation Yrotation Zrotation
					End Site
					{
						OFFSET 0.000000 20.427315 0.000000
					}
				}
				JOINT Hood
				{
					OFFSET 0.000000 18.754097 -10.431000
					CHANNELS 3 Xrotation Yrotation Zrotation
					JOINT Hood1
					{
						OFFSET 0.000000 -5.011002 -7.685901
						CHANNELS 3 Xrotation Yrotation Zrotation
						End Site
						{
							OFFSET 0.000000 9.175140 0.000000
						}
					}
				}
				JOINT LHoodieString
				{
					OFFSET 5.250500 16.397697 3.089900
					CHANNELS 3 Xrotation Yrotation Zrotation
					JOINT LHoodieString1
					{
						OFFSET 0.257700 -6.364304 3.694600
						CHANNELS 3 Xrotation Yrotation Zrotation
						JOINT LHoodieString2
						{
							OFFSET 0.000000 -9.643799 2.679100
							CHANNELS 3 Xrotation Yrotation Zrotation
							End Site
							{
								OFFSET 0.000000 10.009018 0.000000
							}
						}
					}
				}
				JOINT RHoodieString
				{
					OFFSET -5.250500 16.397697 3.089900
					CHANNELS 3 Xrotation Yrotation Zrotation
					JOINT RHoodieString1
					{
						OFFSET -0.257700 -6.364304 3.694600
						CHANNELS 3 Xrotation Yrotation Zrotation
						JOINT RHoodieString2
						{
							OFFSET 0.000000 -9.643799 2.679100
							CHANNELS 3 Xrotation Yrotation Zrotation
							End Site
							{
								OFFSET 0.000000 10.009018 0.000000
							}
						}
					}
				}
			}
			JOINT LBackpack_Strap
			{
				OFFSET 15.223200 -7.719803 -6.610900
				CHANNELS 3 Xrotation Yrotation Zrotation
				End Site
				{
					OFFSET 0.000000 16.040596 0.000000
				}
			}
			JOINT RBackpack_Strap
			{
				OFFSET -15.223000 -7.719803 -6.610900
				CHANNELS 3 Xrotation Yrotation Zrotation
				End Site
				{
					OFFSET 0.000000 16.040596 0.000000
				}
			}
		}
	}
	JOINT BoyFacialAnim_Joint
	{
		OFFSET 1.000000 -82.208099 -1.550900
		CHANNELS 3 Xrotation Yrotation Zrotation
		End Site
		{
			OFFSET 0.000000 30.012791 0.000000
		}
	}
}
MOTION
Frames: 4
Frame Time: 0.033333
-1.694666 78.536079 1.387468 -20.716384 -51.220651 -17.525536 -0.000000 0.000002 0.000001 -5.590517 29.210930 34.857720 22.453166 6.340824 -5.726917 -2.984675 1.502766 -18.248216 0.000000 0.000000 -0.000000 0.000000 0.000000 -0.000000 -0.000000 -0.000000 0.000001 0.361201 -10.821809 -15.808290 22.208136 9.522042 -9.895762 -12.279656 3.208302 21.725169 0.000000 -0.000002 0.000000 0.000000 -0.000002 0.000000 -0.000001 -0.000003 -0.000001 2.776218 -0.684298 1.944590 1.786540 -0.493797 1.940200 1.793620 -0.428268 1.944974 11.079039 5.070912 6.558729 19.273317 36.287781 -13.282253 0.000001 -0.000000 0.000001 0.000001 -0.000000 0.000001 0.000001 -0.000000 0.000001 0.694490 -4.889163 -2.084558 -54.839483 -5.434794 -47.856301 0.000017 -60.038490 0.000010 -101.043421 -20.469293 12.452068 -19.860879 1.138326 14.668255 3.939046 7.948704 0.746804 0.000001 -0.000001 -0.000001 1.788184 4.633420 -42.188163 3.499015 5.996115 -60.501064 0.000001 0.000001 -0.000003 1.786876 4.631986 -42.172091 3.500699 5.997076 -60.517211 0.000003 -0.000001 0.000002 1.788175 4.633407 -42.188173 3.499014 5.996120 -60.501064 0.000001 0.000000 -0.000002 4.520542 7.643161 -41.970061 3.517090 1.918205 -60.762818 -0.000000 0.000001 -0.000000 0.000001 -0.000002 -0.000002 0.062279 -2.743558 -0.257425 -85.955731 67.761460 97.557272 -0.034921 92.815844 0.034828 -80.403122 -12.468045 -26.213846 48.939712 17.699337 11.222376 45.763995 -30.271368 20.151768 -0.000000 0.000000 0.000001 4.207345 -6.387240 66.715894 7.059433 -6.947359 90.919162 -0.000003 -0.000002 0.000005 4.207339 -6.387234 66.715908 7.059427 -6.947344 90.919155 0.000002 0.000001 -0.000000 4.207335 -6.387214 66.715894 7.059414 -6.947358 90.919155 -0.000001 0.000000 0.000002 4.207344 -6.387206 66.715901 7.059429 -6.947365 90.919141 -0.000000 -0.000000 0.000000 0.000001 -0.000000 -0.000003 -0.000000 -0.000001 0.000000 -0.000000 -0.000001 0.000000 -0.000000 -0.000001 0.000000 -0.000000 -0.000001 0.000000 -0.000000 -0.000001 -0.000000 0.000000 -0.000001 0.000000 -0.000000 -0.000001 0.000000 -0.000000 -0.000001 -0.000000 0.000000 -0.000001 0.000000 -0.000000 -0.000000 -0.000000 -0.000000 -0.000000 -0.000000 -0.000000 0.000002 0.000001 
-1.491755 78.508942 1.225249 -19.349631 -49.730840 -16.046691 -0.000000 0.000002 -0.000000 -7.105803 28.006243 34.630350 23.246696 5.422240 -5.423931 -3.055160 1.488626 -17.930858 0.000000 0.000000 -0.000000 0.000000 0.000000 0.000000 -0.000000 0.000000 0.000002 0.175723 -11.269848 -15.914785 22.482464 9.518743 -9.884470 -12.313571 1.941014 21.634436 0.000000 0.000003 -0.000000 0.000000 0.000003 -0.000000 0.000000 -0.000001 -0.000001 2.674237 -0.855660 1.639466 1.713105 -0.639213 1.726712 1.721088 -0.579773 1.734271 11.120547 4.931750 6.387951 19.039793 35.388422 -12.804154 0.000001 -0.000000 0.000001 0.000001 -0.000000 0.000001 0.000001 -0.000000 0.000001 0.708993 -5.199449 -2.705203 -55.358560 -6.719295 -48.699478 -0.000021 -59.168932 -0.000027 -100.583319 -19.763504 11.624821 -19.860882 1.138329 14.668253 3.939044 7.948707 0.746805 0.000001 0.000002 -0.000001 1.788182 4.633421 -42.188163 3.499013 5.996113 -60.501064 -0.000000 0.000002 -0.000005 1.786875 4.631990 -42.172091 3.500701 5.997076 -60.517218 0.000001 0.000000 -0.000001 1.788175 4.633408 -42.188173 3.499013 5.996121 -60.501058 -0.000000 0.000000 -0.000002 4.520540 7.643164 -41.970064 3.517090 1.918207 -60.762818 -0.000002 0.000001 0.000002 0.000001 -0.000000 0.000002 0.139497 -2.519882 0.461185 -82.117766 69.233707 94.279970 0.009785 93.925019 -0.009723 -83.511739 -11.910385 -30.124529 48.939709 17.699339 11.222375 45.763999 -30.271371 20.151768 -0.000000 0.000000 -0.000000 4.207345 -6.387239 66.715901 7.059430 -6.947359 90.919155 0.000000 -0.000000 0.000005 4.207340 -6.387236 66.715908 7.059427 -6.947343 90.919162 0.000001 -0.000000 0.000003 4.207336 -6.387208 66.715894 7.059414 -6.947359 90.919155 -0.000001 -0.000000 0.000000 4.207346 -6.387203 66.715894 7.059427 -6.947365 90.919141 0.000001 0.000001 -0.000003 0.000001 0.000003 -0.000002 -0.000001 0.000000 0.000000 -0.000001 0.000000 0.000000 -0.000001 0.000000 0.000000 -0.000001 0.000000 0.000000 -0.000001 0.000000 -0.000001 -0.000000 -0.000001 -0.000000 -0.000001 0.000000 0.000000 -0.000001 0.000000 -0.000001 -0.000000 -0.000001 -0.000000 -0.000000 -0.000001 0.000001 -0.000000 -0.000001 0.000001 -0.000000 0.000002 -0.000000 
-1.321335 78.481102 1.074334 -17.815232 -48.393540 -14.698197 -0.000000 0.000001 0.000000 -8.950562 26.963731 34.772261 24.035420 4.404611 -5.304200 -3.122139 1.470103 -17.540607 0.000000 0.000000 0.000000 0.000000 0.000000 0.000000 0.000000 0.000001 -0.000001 -0.110784 -11.579855 -15.734167 22.636842 9.516178 -9.871667 -12.278086 0.628167 21.524305 0.000000 0.000003 0.000000 0.000000 0.000003 0.000000 0.000001 -0.000007 0.000000 2.504531 -1.011823 1.498547 1.583912 -0.772022 1.588319 1.591937 -0.719391 1.599223 11.095242 4.806298 5.967294 18.897655 34.306565 -12.623847 0.000001 0.000000 0.000000 0.000001 0.000000 0.000000 0.000001 0.000000 0.000000 0.705737 -5.240685 -3.193509 -56.212498 -8.197277 -49.713040 -0.000023 -58.267804 -0.000031 -99.798168 -18.825133 11.134797 -19.860882 1.138331 14.668250 3.939045 7.948709 0.746805 0.000001 -0.000001 -0.000001 1.788185 4.633419 -42.188166 3.499013 5.996115 -60.501064 -0.000000 0.000000 -0.000002 1.786877 4.631988 -42.172088 3.500701 5.997071 -60.517218 0.000002 -0.000001 0.000000 1.788177 4.633408 -42.188173 3.499013 5.996122 -60.501058 -0.000000 -0.000001 0.000001 4.520543 7.643162 -41.970071 3.517091 1.918208 -60.762818 -0.000001 0.000001 -0.000000 -0.000001 0.000000 -0.000002 0.203205 -2.323057 1.015154 -78.249871 69.764181 91.225632 0.001619 94.828133 -0.001618 -85.344607 -11.478717 -33.507242 48.939712 17.699332 11.222376 45.763995 -30.271368 20.151765 0.000000 0.000000 -0.000000 4.207345 -6.387240 66.715894 7.059433 -6.947357 90.919162 0.000001 -0.000001 0.000003 4.207338 -6.387236 66.715901 7.059428 -6.947342 90.919155 0.000000 0.000001 -0.000002 4.207335 -6.387212 66.715894 7.059412 -6.947359 90.919148 0.000001 0.000001 0.000004 4.207343 -6.387204 66.715888 7.059427 -6.947366 90.919141 -0.000001 -0.000001 -0.000003 -0.000001 -0.000002 0.000001 -0.000000 0.000001 0.000000 -0.000000 0.000001 0.000000 -0.000000 0.000001 0.000000 -0.000000 0.000001 0.000000 -0.000000 0.000001 -0.000000 -0.000000 0.000003 -0.000000 -0.000000 0.000001 0.000000 -0.000000 0.000001 -0.000000 -0.000000 0.000003 -0.000000 -0.000000 -0.000001 -0.000000 -0.000000 -0.000001 -0.000000 -0.000000 0.000001 0.000000 
-1.245873 78.455078 0.999239 -16.642326 -47.358910 -13.946585 -0.000000 0.000001 0.000000 -10.708784 26.412517 35.434543 24.674987 3.202709 -5.374140 -3.230351 1.458986 -17.139837 0.000000 0.000000 -0.000000 0.000000 0.000000 -0.000000 0.000000 0.000000 0.000001 -0.088069 -11.726989 -15.232565 22.518816 9.519042 -9.865310 -12.187882 -0.551888 21.435828 -0.000000 -0.000001 0.000000 -0.000000 -0.000001 0.000000 0.000002 0.000000 0.000000 2.381231 -1.084002 1.538825 1.479672 -0.838952 1.565366 1.486603 -0.791006 1.578720 11.029889 4.729767 5.529386 18.808606 33.408552 -12.491534 -0.000000 -0.000000 0.000000 -0.000000 -0.000000 0.000000 -0.000000 -0.000000 0.000000 0.695497 -5.132895 -3.530143 -57.120029 -9.681462 -50.601398 0.000016 -57.298764 0.000018 -99.079482 -18.018440 10.616261 -19.860880 1.138329 14.668256 3.939044 7.948707 0.746805 -0.000000 -0.000000 -0.000001 1.788184 4.633423 -42.188169 3.499013 5.996116 -60.501064 -0.000001 0.000000 -0.000003 1.786876 4.631988 -42.172091 3.500701 5.997076 -60.517211 -0.000001 -0.000000 0.000000 1.788176 4.633408 -42.188176 3.499012 5.996120 -60.501058 -0.000001 0.000000 0.000001 4.520542 7.643164 -41.970064 3.517093 1.918207 -60.762825 0.000002 0.000000 -0.000000 -0.000000 0.000003 0.000000 0.231377 -2.247054 1.244586 -75.552752 69.287215 89.442283 0.002618 95.358948 -0.002569 -86.028275 -12.030422 -36.073808 48.939709 17.699337 11.222376 45.763995 -30.271371 20.151768 0.000000 0.000000 0.000000 4.207345 -6.387242 66.715894 7.059432 -6.947360 90.919155 -0.000000 -0.000000 0.000005 4.207341 -6.387236 66.715901 7.059427 -6.947344 90.919162 -0.000000 0.000001 0.000002 4.207337 -6.387212 66.715894 7.059412 -6.947358 90.919155 -0.000001 -0.000001 0.000000 4.207345 -6.387209 66.715894 7.059427 -6.947365 90.919148 0.000000 -0.000000 -0.000002 0.000001 -0.000001 0.000001 0.000000 -0.000003 -0.000001 0.000000 -0.000003 -0.000001 0.000000 -0.000003 -0.000001 0.000000 -0.000003 -0.000001 0.000000 -0.000003 -0.000000 0.000000 -0.000001 -0.000000 0.000000 -0.000003 -0.000001 0.000000 -0.000003 -0.000000 0.000000 -0.000001 -0.000000 -0.000001 0.000002 -0.000000 -0.000001 0.000002 -0.000000 -0.000000 0.000001 0.000000 
